<?xml version="1.0" encoding="utf-8"?>
<!-- Generator: Adobe Illustrator 19.2.0, SVG Export Plug-In . SVG Version: 6.00 Build 0)  -->
<svg version="1.1" id="Layer_1" xmlns="http://www.w3.org/2000/svg" xmlns:xlink="http://www.w3.org/1999/xlink" x="0px" y="0px"
	 viewBox="0 0 216 216" style="enable-background:new 0 0 216 216;" xml:space="preserve">
<rect x="0" style="fill:#0D266A;" width="216" height="216"/>
<g>
	<path style="fill:#EFBC2A;" d="M20.3,151V50.6h16.4l26.1,49.6l26.6-49.6H105V151H87.6v-35.4c0-5.8,0.1-11.3,0.2-16.3
		c0.2-5,0.4-9.9,0.7-14.6l-22.2,40h-8.1L36.7,85c0.4,4.4,0.7,9.1,0.8,14c0.1,4.9,0.2,10.4,0.2,16.6V151H20.3z"/>
	<path style="fill:#EFBC2A;" d="M117.6,151l33.7-100.4h16L200.9,151h-18.2l-7-21.7h-33.5l-7,21.7H117.6z M152.9,96.4l-5.2,16.1h22.5
		l-5.3-16.4c-0.5-1.4-1.1-3.3-1.7-5.7c-0.7-2.3-1.4-4.9-2.2-7.5c-0.8-2.7-1.5-5.2-2-7.6c-1,3.5-2,7.2-3.1,10.9
		C154.9,89.9,153.9,93.3,152.9,96.4z"/>
</g>
</svg>
